<svg xmlns="http://www.w3.org/2000/svg" viewBox="0 0 800 600" role="img" aria-labelledby="title desc">
  <title id="title">AC Duct Cleaning Illustration</title>
  <desc id="desc">Technician cleaning HVAC ducts with negative pressure unit, vents, and airflow.</desc>
  <defs>
    <linearGradient id="bg" x1="0" y1="0" x2="0" y2="1">
      <stop offset="0" stop-color="#f8fafc"/>
      <stop offset="1" stop-color="#eef2f7"/>
    </linearGradient>
    <linearGradient id="floor" x1="0" y1="0" x2="1" y2="0">
      <stop offset="0" stop-color="#e2e8f0"/>
      <stop offset="1" stop-color="#f1f5f9"/>
    </linearGradient>
  </defs>
  <rect width="800" height="600" rx="24" fill="url(#bg)"/>
  <rect x="60" y="420" width="680" height="24" rx="12" fill="url(#floor)"/>
  <rect x="80" y="140" width="640" height="60" rx="12" fill="#0b0f4f"/>
  <g fill="#e2e8f0">
    <rect x="140" y="160" width="80" height="20" rx="4"/>
    <rect x="580" y="160" width="80" height="20" rx="4"/>
  </g>
  <g stroke="#38bdf8" stroke-width="6" stroke-linecap="round" fill="none">
    <path d="M220 220 C260 200, 300 200, 340 220"/>
    <path d="M460 220 C500 200, 540 200, 580 220"/>
  </g>
  <g transform="translate(220 320)">
    <rect x="0" y="0" width="120" height="80" rx="10" fill="#0b0f4f"/>
    <circle cx="28" cy="40" r="10" fill="#e67900"/>
    <circle cx="62" cy="40" r="10" fill="#94a3b8"/>
    <rect x="-30" y="24" width="30" height="12" rx="6" fill="#94a3b8"/>
    <path d="M-30 30 C-60 20, -70 10, -100 0" stroke="#94a3b8" stroke-width="8" fill="none" stroke-linecap="round"/>
  </g>
  <g transform="translate(520 300)">
    <rect x="0" y="0" width="60" height="80" rx="8" fill="#cbd5e1" stroke="#0b0f4f" stroke-width="3"/>
    <rect x="6" y="8" width="48" height="20" rx="4" fill="#94a3b8"/>
    <rect x="6" y="36" width="48" height="12" rx="4" fill="#94a3b8"/>
    <rect x="6" y="54" width="48" height="12" rx="4" fill="#94a3b8"/>
  </g>
  <g transform="translate(160 320)">
    <circle cx="0" cy="-30" r="14" fill="#0b0f4f"/>
    <rect x="-10" y="-16" width="20" height="36" rx="6" fill="#0b0f4f"/>
    <rect x="-18" y="-6" width="36" height="14" rx="7" fill="#e67900"/>
    <rect x="-24" y="16" width="48" height="14" rx="7" fill="#e2e8f0" stroke="#0b0f4f" stroke-width="3"/>
    <path d="M24 23 C60 16, 86 14, 120 12" stroke="#38bdf8" stroke-width="6" fill="none" stroke-linecap="round"/>
  </g>
  <g transform="translate(360 320)" fill="#e67900">
    <rect x="0" y="0" width="140" height="18" rx="9"/>
    <rect x="0" y="26" width="140" height="18" rx="9"/>
  </g>
  <g transform="translate(390 260)" stroke="#e67900" stroke-width="8" stroke-linecap="round">
    <path d="M0 0 L0 -40"/>
    <path d="M-20 -20 L20 -20"/>
  </g>
</svg>


