<svg xmlns="http://www.w3.org/2000/svg" viewBox="0 0 800 600" role="img" aria-labelledby="title desc">
  <title id="title">AC Duct Cleaning Illustration</title>
  <desc id="desc">Stylized HVAC duct with a fan and airflow indicating cleaning.</desc>
  <defs>
    <linearGradient id="bg" x1="0" y1="0" x2="0" y2="1">
      <stop offset="0" stop-color="#f8fafc"/>
      <stop offset="1" stop-color="#eef2f7"/>
    </linearGradient>
  </defs>
  <rect width="800" height="600" rx="24" fill="url(#bg)"/>
  <rect x="80" y="180" width="640" height="240" rx="16" fill="#e2e8f0" stroke="#0b0f4f" stroke-width="4"/>
  <circle cx="400" cy="300" r="80" fill="#ffffff" stroke="#0b0f4f" stroke-width="4"/>
  <g fill="#e67900" transform="translate(400 300)">
    <path d="M0 -60 L18 -6 L-18 -6 Z"/>
    <path d="M60 0 L6 18 L6 -18 Z"/>
    <path d="M0 60 L-18 6 L18 6 Z"/>
    <path d="M-60 0 L-6 -18 L-6 18 Z"/>
  </g>
  <g stroke="#94a3b8" stroke-width="6" stroke-linecap="round" fill="none">
    <path d="M120 220 C180 220, 220 220, 260 220"/>
    <path d="M120 260 C200 260, 240 260, 280 260"/>
    <path d="M120 300 C200 300, 260 300, 320 300"/>
    <path d="M680 220 C620 220, 580 220, 540 220"/>
    <path d="M680 260 C600 260, 560 260, 520 260"/>
    <path d="M680 300 C600 300, 540 300, 480 300"/>
  </g>
</svg>


