<svg xmlns="http://www.w3.org/2000/svg" viewBox="0 0 800 600" role="img" aria-labelledby="title desc">
  <title id="title">Drainage Jetting Illustration</title>
  <desc id="desc">Underground pipe with nozzle head emitting high-pressure jets clearing blockages.</desc>
  <defs>
    <linearGradient id="bg" x1="0" y1="0" x2="0" y2="1">
      <stop offset="0" stop-color="#f8fafc"/>
      <stop offset="1" stop-color="#eef2f7"/>
    </linearGradient>
  </defs>
  <rect width="800" height="600" rx="24" fill="url(#bg)"/>
  <rect x="80" y="360" width="640" height="40" rx="20" fill="#94a3b8"/>
  <rect x="100" y="250" width="600" height="100" rx="50" fill="#e2e8f0" stroke="#0b0f4f" stroke-width="4"/>
  <g transform="translate(220 300)">
    <circle cx="0" cy="0" r="24" fill="#0b0f4f"/>
    <rect x="0" y="-6" width="80" height="12" rx="6" fill="#e67900"/>
  </g>
  <g transform="translate(320 300)" fill="#cbd5e1">
    <rect x="0" y="-18" width="20" height="36" rx="6"/>
    <rect x="26" y="-22" width="20" height="44" rx="6"/>
    <rect x="52" y="-26" width="20" height="52" rx="6"/>
  </g>
  <g stroke="#38bdf8" stroke-width="8" stroke-linecap="round" fill="none">
    <path d="M210 280 C230 280, 250 290, 270 300"/>
    <path d="M210 320 C230 320, 250 310, 270 300"/>
  </g>
  <g transform="translate(540 320)">
    <circle cx="0" cy="-26" r="12" fill="#0b0f4f"/>
    <rect x="-9" y="-14" width="18" height="36" rx="6" fill="#0b0f4f"/>
    <rect x="-30" y="8" width="32" height="12" rx="6" fill="#e2e8f0" stroke="#0b0f4f" stroke-width="3"/>
    <rect x="6" y="6" width="28" height="12" rx="6" fill="#e67900"/>
  </g>
</svg>


