<svg xmlns="http://www.w3.org/2000/svg" viewBox="0 0 800 600" role="img" aria-labelledby="title desc">
  <title id="title">Grease Trap Cleaning Illustration</title>
  <desc id="desc">Sink line into grease trap box showing separated grease, water and solids layers with service access.</desc>
  <defs>
    <linearGradient id="bg" x1="0" y1="0" x2="0" y2="1">
      <stop offset="0" stop-color="#f8fafc"/>
      <stop offset="1" stop-color="#eef2f7"/>
    </linearGradient>
  </defs>
  <rect width="800" height="600" rx="24" fill="url(#bg)"/>
  <g transform="translate(100 180)">
    <rect x="0" y="0" width="120" height="36" rx="8" fill="#cbd5e1"/>
    <rect x="120" y="14" width="60" height="8" rx="4" fill="#94a3b8"/>
    <rect x="180" y="-40" width="460" height="220" rx="12" fill="#e2e8f0" stroke="#0b0f4f" stroke-width="4"/>
    <rect x="200" y="-20" width="420" height="40" rx="8" fill="#cbd5e1"/>
    <rect x="200" y="80" width="420" height="60" rx="6" fill="#fde68a"/>
    <rect x="200" y="140" width="420" height="32" rx="6" fill="#94a3b8"/>
    <rect x="560" y="-10" width="36" height="36" rx="6" fill="#ffffff" stroke="#0b0f4f" stroke-width="3"/>
  </g>
  <g fill="#e67900">
    <circle cx="640" cy="190" r="6"/>
    <circle cx="660" cy="210" r="5"/>
    <circle cx="620" cy="220" r="4"/>
  </g>
  <g transform="translate(160 360)">
    <circle cx="0" cy="-26" r="12" fill="#0b0f4f"/>
    <rect x="-9" y="-14" width="18" height="36" rx="6" fill="#0b0f4f"/>
    <rect x="-26" y="8" width="30" height="10" rx="5" fill="#e2e8f0" stroke="#0b0f4f" stroke-width="3"/>
    <rect x="8" y="6" width="24" height="12" rx="6" fill="#e67900"/>
  </g>
</svg>


