<svg xmlns="http://www.w3.org/2000/svg" viewBox="0 0 800 600" role="img" aria-labelledby="title desc">
  <title id="title">Kitchen Hood Cleaning Illustration</title>
  <desc id="desc">Hood over stove with pots, technician spraying degreaser, steam and sparkle icons.</desc>
  <defs>
    <linearGradient id="bg" x1="0" y1="0" x2="0" y2="1">
      <stop offset="0" stop-color="#f8fafc"/>
      <stop offset="1" stop-color="#eef2f7"/>
    </linearGradient>
  </defs>
  <rect width="800" height="600" rx="24" fill="url(#bg)"/>
  <polygon points="180,200 620,200 580,270 220,270" fill="#0b0f4f"/>
  <rect x="240" y="270" width="320" height="18" rx="6" fill="#cbd5e1"/>
  <rect x="220" y="310" width="360" height="24" rx="6" fill="#94a3b8"/>
  <g fill="#e2e8f0">
    <rect x="250" y="334" width="70" height="36" rx="8"/>
    <rect x="480" y="334" width="70" height="36" rx="8"/>
  </g>
  <g stroke="#94a3b8" stroke-width="6" stroke-linecap="round" fill="none">
    <path d="M290 300 C290 330, 270 350, 270 380"/>
    <path d="M510 300 C510 330, 490 350, 490 380"/>
  </g>
  <g transform="translate(600 330)">
    <rect x="0" y="0" width="80" height="100" rx="12" fill="#0b0f4f"/>
    <rect x="56" y="-20" width="40" height="12" rx="6" fill="#e2e8f0"/>
    <circle cx="40" cy="18" r="10" fill="#e67900"/>
    <path d="M40 18 C90 0, 120 -10, 160 -20" stroke="#38bdf8" stroke-width="6" fill="none" stroke-linecap="round"/>
  </g>
  <g transform="translate(180 330)">
    <circle cx="0" cy="-26" r="12" fill="#0b0f4f"/>
    <rect x="-9" y="-14" width="18" height="34" rx="6" fill="#0b0f4f"/>
    <rect x="-26" y="8" width="30" height="10" rx="5" fill="#e2e8f0" stroke="#0b0f4f" stroke-width="3"/>
    <rect x="8" y="6" width="24" height="12" rx="6" fill="#e67900"/>
  </g>
  <g fill="#e67900">
    <circle cx="640" cy="250" r="5"/>
    <circle cx="660" cy="240" r="4"/>
    <circle cx="650" cy="270" r="6"/>
  </g>
</svg>


