<svg xmlns="http://www.w3.org/2000/svg" viewBox="0 0 800 600" role="img" aria-labelledby="title desc">
  <title id="title">Maintenance Services Illustration</title>
  <desc id="desc">Technician with wrench and toolbox in a home/property maintenance scene.</desc>
  <defs>
    <linearGradient id="bg" x1="0" y1="0" x2="0" y2="1">
      <stop offset="0" stop-color="#f8fafc"/>
      <stop offset="1" stop-color="#eef2f7"/>
    </linearGradient>
  </defs>
  <rect width="800" height="600" rx="24" fill="url(#bg)"/>
  <g fill="#cbd5e1">
    <rect x="120" y="360" width="560" height="18" rx="9"/>
    <rect x="160" y="200" width="240" height="120" rx="12"/>
    <rect x="440" y="220" width="180" height="100" rx="12"/>
  </g>
  <g transform="translate(340 260)">
    <circle cx="0" cy="0" r="22" fill="#0b0f4f"/>
    <rect x="-12" y="22" width="24" height="50" rx="8" fill="#0b0f4f"/>
    <rect x="-40" y="40" width="36" height="12" rx="6" fill="#e67900"/>
    <rect x="4" y="40" width="50" height="30" rx="8" fill="#e2e8f0" stroke="#0b0f4f" stroke-width="3"/>
  </g>
  <g transform="translate(460 300)" fill="#0b0f4f">
    <rect x="0" y="0" width="14" height="42" rx="6"/>
    <rect x="-14" y="42" width="42" height="10" rx="5" fill="#e2e8f0" stroke="#0b0f4f" stroke-width="3"/>
  </g>
  <g transform="translate(520 320)" fill="#94a3b8">
    <rect x="0" y="0" width="60" height="30" rx="6"/>
    <rect x="70" y="0" width="60" height="30" rx="6"/>
  </g>
</svg>


