<svg xmlns="http://www.w3.org/2000/svg" viewBox="0 0 800 600" role="img" aria-labelledby="title desc">
  <title id="title">Pipeline Disinfection Illustration</title>
  <desc id="desc">Pipelines with dosing pump adding chlorine to the line; droplet with plus sign indicates disinfection.</desc>
  <defs>
    <linearGradient id="bg" x1="0" y1="0" x2="0" y2="1">
      <stop offset="0" stop-color="#f8fafc"/>
      <stop offset="1" stop-color="#eef2f7"/>
    </linearGradient>
  </defs>
  <rect width="800" height="600" rx="24" fill="url(#bg)"/>
  <g fill="#cbd5e1">
    <rect x="100" y="260" width="600" height="36" rx="18"/>
    <rect x="160" y="320" width="480" height="24" rx="12"/>
  </g>
  <g transform="translate(520 220)">
    <rect x="0" y="0" width="100" height="120" rx="12" fill="#0b0f4f"/>
    <rect x="-24" y="60" width="24" height="12" rx="6" fill="#94a3b8"/>
    <path d="M-24 66 C-50 56, -80 52, -100 48" stroke="#94a3b8" stroke-width="8" fill="none" stroke-linecap="round"/>
    <circle cx="30" cy="40" r="10" fill="#e67900"/>
  </g>
  <g>
    <circle cx="340" cy="278" r="20" fill="#ffffff" stroke="#0b0f4f" stroke-width="4"/>
    <path d="M340 258 C320 286, 320 300, 340 320 C360 300, 360 286, 340 258 Z" fill="#38bdf8"/>
    <g stroke="#e67900" stroke-width="6" stroke-linecap="round">
      <path d="M340 274 L340 302"/>
      <path d="M326 288 L354 288"/>
    </g>
  </g>
  <g transform="translate(200 320)">
    <circle cx="0" cy="-26" r="12" fill="#0b0f4f"/>
    <rect x="-9" y="-14" width="18" height="36" rx="6" fill="#0b0f4f"/>
    <rect x="-30" y="8" width="32" height="12" rx="6" fill="#e2e8f0" stroke="#0b0f4f" stroke-width="3"/>
    <rect x="6" y="6" width="28" height="12" rx="6" fill="#e67900"/>
  </g>
</svg>


