<svg xmlns="http://www.w3.org/2000/svg" viewBox="0 0 800 600" role="img" aria-labelledby="title desc">
  <title id="title">Sanitization and Disinfection Illustration</title>
  <desc id="desc">Technician spraying disinfectant, room surfaces with sparkles indicating sanitized environment.</desc>
  <defs>
    <linearGradient id="bg" x1="0" y1="0" x2="0" y2="1">
      <stop offset="0" stop-color="#f8fafc"/>
      <stop offset="1" stop-color="#eef2f7"/>
    </linearGradient>
  </defs>
  <rect width="800" height="600" rx="24" fill="url(#bg)"/>
  <g transform="translate(520 200)">
    <rect x="0" y="0" width="90" height="130" rx="12" fill="#0b0f4f"/>
    <rect x="66" y="-20" width="40" height="14" rx="7" fill="#e2e8f0"/>
    <circle cx="40" cy="30" r="10" fill="#e67900"/>
    <path d="M40 30 C100 10, 150 0, 200 -20" stroke="#38bdf8" stroke-width="8" fill="none" stroke-linecap="round"/>
  </g>
  <g fill="#e67900">
    <circle cx="600" cy="280" r="5"/>
    <circle cx="580" cy="260" r="4"/>
    <circle cx="620" cy="260" r="4"/>
    <circle cx="610" cy="300" r="6"/>
  </g>
  <g fill="#cbd5e1">
    <rect x="160" y="280" width="200" height="18" rx="8"/>
    <rect x="160" y="320" width="160" height="18" rx="8"/>
    <rect x="160" y="360" width="180" height="18" rx="8"/>
  </g>
  <g transform="translate(200 320)">
    <circle cx="0" cy="-26" r="12" fill="#0b0f4f"/>
    <rect x="-9" y="-14" width="18" height="36" rx="6" fill="#0b0f4f"/>
    <rect x="-28" y="8" width="34" height="12" rx="6" fill="#e2e8f0" stroke="#0b0f4f" stroke-width="3"/>
    <rect x="8" y="6" width="26" height="12" rx="6" fill="#e67900"/>
  </g>
</svg>


