<svg xmlns="http://www.w3.org/2000/svg" viewBox="0 0 800 600" role="img" aria-labelledby="title desc">
  <title id="title">Water Tank Cleaning Illustration</title>
  <desc id="desc">Technician cleaning an access hatch of a cylindrical water tank with visible water level.</desc>
  <defs>
    <linearGradient id="bg" x1="0" y1="0" x2="0" y2="1">
      <stop offset="0" stop-color="#f8fafc"/>
      <stop offset="1" stop-color="#eef2f7"/>
    </linearGradient>
  </defs>
  <rect width="800" height="600" rx="24" fill="url(#bg)"/>
  <g transform="translate(240 150)">
    <rect x="0" y="40" width="320" height="260" rx="24" fill="#e2e8f0" stroke="#0b0f4f" stroke-width="4"/>
    <rect x="0" y="180" width="320" height="120" fill="#38bdf8"/>
    <rect x="100" y="10" width="120" height="36" rx="10" fill="#0b0f4f"/>
    <rect x="-20" y="100" width="20" height="180" rx="8" fill="#94a3b8"/>
  </g>
  <g transform="translate(520 280)">
    <rect x="0" y="0" width="90" height="120" rx="12" fill="#0b0f4f"/>
    <rect x="-20" y="40" width="20" height="12" rx="6" fill="#94a3b8"/>
    <path d="M-20 46 C-40 36, -60 30, -80 26" stroke="#94a3b8" stroke-width="8" fill="none" stroke-linecap="round"/>
    <circle cx="46" cy="36" r="10" fill="#e67900"/>
  </g>
  <g transform="translate(180 320)">
    <circle cx="0" cy="-30" r="14" fill="#0b0f4f"/>
    <rect x="-10" y="-16" width="20" height="38" rx="6" fill="#0b0f4f"/>
    <rect x="-26" y="8" width="36" height="12" rx="6" fill="#e2e8f0" stroke="#0b0f4f" stroke-width="3"/>
    <rect x="12" y="8" width="26" height="12" rx="6" fill="#e67900"/>
  </g>
  <g fill="#e67900">
    <circle cx="600" cy="200" r="6"/>
    <circle cx="620" cy="240" r="4"/>
    <circle cx="580" cy="260" r="5"/>
  </g>
</svg>


